<?xml version="1.0" encoding="utf-8"?>
<!-- Generator: Adobe Illustrator 17.1.0, SVG Export Plug-In . SVG Version: 6.00 Build 0)  -->
<!DOCTYPE svg PUBLIC "-//W3C//DTD SVG 1.1//EN" "http://www.w3.org/Graphics/SVG/1.1/DTD/svg11.dtd">
<svg version="1.1" id="Layer_1" xmlns="http://www.w3.org/2000/svg" xmlns:xlink="http://www.w3.org/1999/xlink" x="0px" y="0px"
	 viewBox="0 0 190 80" enable-background="new 0 0 190 80" xml:space="preserve">
<g>
	<path fill="#0369D8" d="M63.5,69.8l-28.7,9c-0.9,0.3-1.9,0.3-2.8,0l-28.6-9c-1.8-0.6-3.1-2.3-3.1-4.2v-63C0.3,1.7,1,1,1.9,1H65
		c0.9,0,1.6,0.7,1.6,1.6v63C66.6,67.5,65.3,69.2,63.5,69.8"/>
	<rect x="9" y="56.8" fill="#FFFFFF" width="1" height="5.4"/>
	<path fill="#FFFFFF" d="M13.4,56.8C13.5,56.8,13.5,56.8,13.4,56.8c0.1,0,0.1,0.1,0.2,0.1c0,0,0,0,0.1,0.1l2.9,3.6
		c0-0.1,0-0.2,0-0.3c0-0.1,0-0.2,0-0.2v-3.3h0.9v5.4h-0.5c-0.1,0-0.1,0-0.2,0c-0.1,0-0.1-0.1-0.2-0.1l-2.8-3.6c0,0.1,0,0.2,0,0.2
		c0,0.1,0,0.2,0,0.2v3.3h-0.9v-5.4h0.5C13.4,56.8,13.4,56.8,13.4,56.8"/>
	<path fill="#FFFFFF" d="M22.9,57.8c0,0.1-0.1,0.1-0.1,0.1c0,0-0.1,0-0.1,0c-0.1,0-0.1,0-0.2-0.1c-0.1,0-0.1-0.1-0.2-0.1
		c-0.1,0-0.2-0.1-0.3-0.1c-0.1,0-0.2-0.1-0.4-0.1c-0.1,0-0.3,0-0.4,0.1c-0.1,0-0.2,0.1-0.3,0.1c-0.1,0.1-0.1,0.1-0.2,0.2
		c0,0.1-0.1,0.2-0.1,0.3c0,0.1,0,0.2,0.1,0.3c0.1,0.1,0.2,0.2,0.3,0.2c0.1,0.1,0.3,0.1,0.4,0.2c0.2,0,0.3,0.1,0.5,0.2
		c0.2,0.1,0.3,0.1,0.5,0.2c0.2,0.1,0.3,0.2,0.4,0.3c0.1,0.1,0.2,0.2,0.3,0.4c0.1,0.2,0.1,0.4,0.1,0.6c0,0.2,0,0.5-0.1,0.7
		c-0.1,0.2-0.2,0.4-0.4,0.6c-0.2,0.2-0.4,0.3-0.6,0.4c-0.2,0.1-0.5,0.1-0.8,0.1c-0.2,0-0.3,0-0.5-0.1c-0.2,0-0.3-0.1-0.5-0.1
		c-0.2-0.1-0.3-0.1-0.4-0.2c-0.1-0.1-0.3-0.2-0.4-0.3l0.3-0.5c0,0,0.1-0.1,0.1-0.1c0,0,0.1,0,0.1,0c0.1,0,0.1,0,0.2,0.1
		c0.1,0.1,0.2,0.1,0.3,0.2c0.1,0.1,0.2,0.1,0.4,0.2c0.1,0.1,0.3,0.1,0.5,0.1c0.3,0,0.5-0.1,0.7-0.2c0.2-0.1,0.2-0.3,0.2-0.6
		c0-0.1,0-0.3-0.1-0.3c-0.1-0.1-0.2-0.2-0.3-0.2c-0.1-0.1-0.3-0.1-0.4-0.2c-0.2,0-0.3-0.1-0.5-0.1c-0.2-0.1-0.3-0.1-0.5-0.2
		c-0.2-0.1-0.3-0.2-0.4-0.3c-0.1-0.1-0.2-0.3-0.3-0.4c-0.1-0.2-0.1-0.4-0.1-0.6c0-0.2,0-0.4,0.1-0.6c0.1-0.2,0.2-0.4,0.3-0.5
		c0.2-0.1,0.3-0.3,0.6-0.4c0.2-0.1,0.5-0.1,0.8-0.1c0.3,0,0.6,0.1,0.9,0.2c0.3,0.1,0.5,0.2,0.7,0.4L22.9,57.8z"/>
	<polygon fill="#FFFFFF" points="29.4,56.8 29.4,57.7 27.7,57.7 27.7,62.3 26.7,62.3 26.7,57.7 25.1,57.7 25.1,56.8 	"/>
	<rect x="31.6" y="56.8" fill="#FFFFFF" width="1" height="5.4"/>
	<polygon fill="#FFFFFF" points="39.2,56.8 39.2,57.7 37.6,57.7 37.6,62.3 36.6,62.3 36.6,57.7 34.9,57.7 34.9,56.8 	"/>
	<path fill="#FFFFFF" d="M43.5,61.5c0.2,0,0.4,0,0.5-0.1c0.2-0.1,0.3-0.2,0.4-0.3c0.1-0.1,0.2-0.3,0.2-0.4c0.1-0.2,0.1-0.4,0.1-0.6
		v-3.3h1v3.3c0,0.3-0.1,0.6-0.2,0.9c-0.1,0.3-0.3,0.5-0.4,0.7c-0.2,0.2-0.4,0.4-0.7,0.5c-0.3,0.1-0.6,0.2-0.9,0.2
		c-0.3,0-0.7-0.1-0.9-0.2c-0.3-0.1-0.5-0.3-0.7-0.5c-0.2-0.2-0.3-0.4-0.4-0.7c-0.1-0.3-0.2-0.6-0.2-0.9v-3.3h1v3.3
		c0,0.2,0,0.4,0.1,0.6c0.1,0.2,0.1,0.3,0.2,0.4c0.1,0.1,0.2,0.2,0.4,0.3C43.2,61.4,43.3,61.5,43.5,61.5"/>
	<polygon fill="#FFFFFF" points="52.2,56.8 52.2,57.7 50.5,57.7 50.5,62.3 49.5,62.3 49.5,57.7 47.9,57.7 47.9,56.8 	"/>
	<polygon fill="#FFFFFF" points="57.8,56.8 57.8,57.6 55.3,57.6 55.3,59.1 57.2,59.1 57.2,59.9 55.3,59.9 55.3,61.5 57.8,61.5 
		57.8,62.3 54.3,62.3 54.3,56.8 	"/>
	<path fill="#FFFFFF" d="M11,51.8C11,51.8,11.1,51.8,11,51.8l0.3,0.2c-0.1,0.1-0.2,0.2-0.4,0.3c-0.2,0.1-0.3,0.1-0.5,0.1
		c-0.2,0-0.4,0-0.5-0.1c-0.2-0.1-0.3-0.2-0.4-0.3c-0.1-0.1-0.2-0.3-0.2-0.4c-0.1-0.2-0.1-0.3-0.1-0.5c0-0.2,0-0.4,0.1-0.5
		c0.1-0.2,0.2-0.3,0.3-0.4c0.1-0.1,0.3-0.2,0.4-0.3c0.2-0.1,0.3-0.1,0.5-0.1c0.2,0,0.4,0,0.5,0.1c0.1,0.1,0.3,0.1,0.4,0.2l-0.2,0.2
		c0,0,0,0,0,0c0,0,0,0-0.1,0c0,0-0.1,0-0.1,0c0,0-0.1,0-0.1-0.1c0,0-0.1,0-0.2-0.1c-0.1,0-0.2,0-0.3,0c-0.1,0-0.2,0-0.3,0.1
		c-0.1,0-0.2,0.1-0.3,0.2c-0.1,0.1-0.1,0.2-0.2,0.3c0,0.1-0.1,0.2-0.1,0.4c0,0.1,0,0.3,0.1,0.4c0,0.1,0.1,0.2,0.2,0.3
		c0.1,0.1,0.2,0.1,0.2,0.2c0.1,0,0.2,0.1,0.3,0.1c0.1,0,0.1,0,0.2,0c0.1,0,0.1,0,0.1,0c0,0,0.1,0,0.1-0.1
		C10.9,51.9,10.9,51.9,11,51.8C10.9,51.8,11,51.8,11,51.8C11,51.8,11,51.8,11,51.8"/>
	<path fill="#FFFFFF" d="M12.7,52c0.1,0,0.2,0,0.2,0c0.1,0,0.1-0.1,0.2-0.1c0.1-0.1,0.1-0.1,0.1-0.2c0-0.1,0-0.2,0-0.3v-1.5h0.5v1.5
		c0,0.2,0,0.3-0.1,0.4c0,0.1-0.1,0.2-0.2,0.3c-0.1,0.1-0.2,0.2-0.3,0.2c-0.1,0.1-0.3,0.1-0.4,0.1c-0.2,0-0.3,0-0.4-0.1
		c-0.1-0.1-0.2-0.1-0.3-0.2c-0.1-0.1-0.2-0.2-0.2-0.3c0-0.1-0.1-0.3-0.1-0.4v-1.5h0.5v1.5c0,0.1,0,0.2,0,0.3c0,0.1,0.1,0.1,0.1,0.2
		c0,0.1,0.1,0.1,0.2,0.1C12.5,52,12.6,52,12.7,52"/>
	<path fill="#FFFFFF" d="M15.6,50.3C15.6,50.3,15.6,50.3,15.6,50.3c-0.1,0.1-0.1,0.1-0.1,0.1c0,0-0.1,0-0.1,0c0,0-0.1,0-0.1-0.1
		c0,0-0.1,0-0.1-0.1c-0.1,0-0.1,0-0.2,0c-0.1,0-0.1,0-0.2,0c0,0-0.1,0-0.1,0.1c0,0-0.1,0.1-0.1,0.1c0,0,0,0.1,0,0.1
		c0,0.1,0,0.1,0.1,0.2c0,0,0.1,0.1,0.1,0.1c0.1,0,0.1,0.1,0.2,0.1c0.1,0,0.1,0,0.2,0.1c0.1,0,0.1,0.1,0.2,0.1c0.1,0,0.1,0.1,0.2,0.1
		c0.1,0.1,0.1,0.1,0.1,0.2c0,0.1,0.1,0.2,0.1,0.3c0,0.1,0,0.2-0.1,0.3c0,0.1-0.1,0.2-0.2,0.3c-0.1,0.1-0.2,0.1-0.3,0.2
		c-0.1,0-0.2,0.1-0.4,0.1c-0.1,0-0.2,0-0.2,0c-0.1,0-0.2,0-0.2-0.1c-0.1,0-0.1-0.1-0.2-0.1c-0.1,0-0.1-0.1-0.2-0.1l0.1-0.2
		c0,0,0,0,0,0c0,0,0,0,0.1,0c0,0,0.1,0,0.1,0c0,0,0.1,0.1,0.1,0.1c0,0,0.1,0.1,0.2,0.1c0.1,0,0.1,0,0.2,0c0.1,0,0.2,0,0.3-0.1
		c0.1-0.1,0.1-0.2,0.1-0.3c0-0.1,0-0.1-0.1-0.2c0,0-0.1-0.1-0.1-0.1c-0.1,0-0.1-0.1-0.2-0.1c-0.1,0-0.1,0-0.2-0.1
		c-0.1,0-0.1-0.1-0.2-0.1c-0.1,0-0.1-0.1-0.2-0.1c-0.1-0.1-0.1-0.1-0.1-0.2c0-0.1-0.1-0.2-0.1-0.3c0-0.1,0-0.2,0.1-0.3
		c0-0.1,0.1-0.2,0.2-0.2c0.1-0.1,0.2-0.1,0.3-0.2c0.1,0,0.2-0.1,0.4-0.1c0.2,0,0.3,0,0.4,0.1c0.1,0,0.2,0.1,0.3,0.2L15.6,50.3z"/>
	<polygon fill="#FFFFFF" points="18,49.8 18,50.2 17.2,50.2 17.2,52.4 16.7,52.4 16.7,50.2 15.9,50.2 15.9,49.8 	"/>
	<path fill="#FFFFFF" d="M20.6,51.1c0,0.2,0,0.4-0.1,0.5c-0.1,0.2-0.2,0.3-0.3,0.4c-0.1,0.1-0.3,0.2-0.4,0.3
		c-0.2,0.1-0.3,0.1-0.5,0.1c-0.2,0-0.4,0-0.5-0.1c-0.2-0.1-0.3-0.2-0.4-0.3c-0.1-0.1-0.2-0.3-0.3-0.4C18,51.5,18,51.3,18,51.1
		c0-0.2,0-0.4,0.1-0.5c0.1-0.2,0.2-0.3,0.3-0.4c0.1-0.1,0.3-0.2,0.4-0.3c0.2-0.1,0.3-0.1,0.5-0.1c0.2,0,0.4,0,0.5,0.1
		c0.2,0.1,0.3,0.2,0.4,0.3c0.1,0.1,0.2,0.3,0.3,0.4C20.6,50.7,20.6,50.9,20.6,51.1 M20.1,51.1c0-0.1,0-0.3-0.1-0.4
		c0-0.1-0.1-0.2-0.2-0.3c-0.1-0.1-0.2-0.1-0.3-0.2c-0.1,0-0.2-0.1-0.3-0.1c-0.1,0-0.2,0-0.3,0.1c-0.1,0-0.2,0.1-0.3,0.2
		c-0.1,0.1-0.1,0.2-0.2,0.3c0,0.1-0.1,0.2-0.1,0.4c0,0.1,0,0.3,0.1,0.4c0,0.1,0.1,0.2,0.2,0.3c0.1,0.1,0.2,0.1,0.3,0.2
		c0.1,0,0.2,0.1,0.3,0.1c0.1,0,0.2,0,0.3-0.1c0.1,0,0.2-0.1,0.3-0.2c0.1-0.1,0.1-0.2,0.2-0.3C20.1,51.4,20.1,51.2,20.1,51.1"/>
	<path fill="#FFFFFF" d="M22.3,51.4c0,0,0,0.1,0.1,0.1c0,0,0-0.1,0.1-0.1c0,0,0-0.1,0.1-0.1l0.8-1.4c0,0,0,0,0,0c0,0,0,0,0,0
		c0,0,0,0,0,0c0,0,0,0,0.1,0h0.4v2.6h-0.4v-1.7c0,0,0-0.1,0-0.1c0,0,0-0.1,0-0.1L22.6,52c0,0,0,0.1-0.1,0.1c0,0-0.1,0-0.1,0h-0.1
		c0,0-0.1,0-0.1,0c0,0-0.1,0-0.1-0.1l-0.8-1.5c0,0,0,0.1,0,0.1c0,0,0,0.1,0,0.1v1.7H21v-2.6h0.4c0,0,0,0,0.1,0c0,0,0,0,0,0
		c0,0,0,0,0,0c0,0,0,0,0,0l0.8,1.4C22.3,51.4,22.3,51.4,22.3,51.4"/>
	<polygon fill="#FFFFFF" points="25.9,49.8 25.9,50.2 24.8,50.2 24.8,50.9 25.7,50.9 25.7,51.3 24.8,51.3 24.8,52 25.9,52 
		25.9,52.4 24.3,52.4 24.3,49.8 	"/>
	<path fill="#FFFFFF" d="M26.8,51.4v1h-0.5v-2.6h0.8c0.2,0,0.3,0,0.5,0.1c0.1,0,0.2,0.1,0.3,0.2c0.1,0.1,0.1,0.1,0.2,0.2
		c0,0.1,0.1,0.2,0.1,0.3c0,0.1,0,0.2,0,0.2c0,0.1-0.1,0.1-0.1,0.2c0,0.1-0.1,0.1-0.2,0.2c-0.1,0-0.2,0.1-0.2,0.1
		c0.1,0,0.1,0.1,0.2,0.1l0.6,1h-0.4c0,0-0.1,0-0.1,0c0,0-0.1,0-0.1-0.1l-0.5-0.8c0,0,0-0.1-0.1-0.1c0,0-0.1,0-0.1,0H26.8z M26.8,51
		h0.3c0.1,0,0.2,0,0.2,0c0.1,0,0.1-0.1,0.2-0.1c0,0,0.1-0.1,0.1-0.1c0-0.1,0-0.1,0-0.2c0-0.1,0-0.2-0.1-0.3
		c-0.1-0.1-0.2-0.1-0.4-0.1h-0.3V51z"/>
	<path fill="#FFFFFF" d="M31.6,51.1c0,0.2,0,0.4-0.1,0.5c-0.1,0.2-0.2,0.3-0.3,0.4c-0.1,0.1-0.3,0.2-0.4,0.3
		c-0.2,0.1-0.3,0.1-0.5,0.1h-1v-2.6h1c0.2,0,0.4,0,0.5,0.1c0.2,0.1,0.3,0.2,0.4,0.3c0.1,0.1,0.2,0.2,0.3,0.4
		C31.6,50.7,31.6,50.9,31.6,51.1 M31.1,51.1c0-0.1,0-0.3-0.1-0.4c0-0.1-0.1-0.2-0.2-0.3c-0.1-0.1-0.2-0.1-0.3-0.2
		c-0.1,0-0.2-0.1-0.3-0.1h-0.5V52h0.5c0.1,0,0.2,0,0.3-0.1c0.1,0,0.2-0.1,0.3-0.2c0.1-0.1,0.1-0.2,0.2-0.3
		C31.1,51.4,31.1,51.2,31.1,51.1"/>
	<path fill="#FFFFFF" d="M34.2,52.4h-0.4c0,0-0.1,0-0.1,0c0,0,0,0-0.1-0.1l-0.2-0.5h-1.1l-0.2,0.5c0,0,0,0.1-0.1,0.1
		c0,0-0.1,0-0.1,0h-0.4l1-2.6h0.5L34.2,52.4z M32.5,51.4h0.8L33,50.6c0,0,0-0.1,0-0.1c0-0.1,0-0.1-0.1-0.2c0,0.1,0,0.1,0,0.2
		c0,0.1,0,0.1,0,0.1L32.5,51.4z"/>
	<polygon fill="#FFFFFF" points="36,49.8 36,50.2 35.2,50.2 35.2,52.4 34.7,52.4 34.7,50.2 34,50.2 34,49.8 	"/>
	<path fill="#FFFFFF" d="M38.3,52.4h-0.4c0,0-0.1,0-0.1,0c0,0,0,0-0.1-0.1l-0.2-0.5h-1.1l-0.2,0.5c0,0,0,0.1-0.1,0.1
		c0,0-0.1,0-0.1,0h-0.4l1-2.6h0.5L38.3,52.4z M36.6,51.4h0.8l-0.3-0.9c0,0,0-0.1,0-0.1c0-0.1,0-0.1-0.1-0.2c0,0.1,0,0.1,0,0.2
		c0,0.1,0,0.1,0,0.1L36.6,51.4z"/>
	<path fill="#FFFFFF" d="M39.8,51.5v0.9h-0.5v-2.6h0.8c0.2,0,0.3,0,0.4,0.1c0.1,0,0.2,0.1,0.3,0.2c0.1,0.1,0.1,0.2,0.2,0.3
		c0,0.1,0.1,0.2,0.1,0.3c0,0.1,0,0.2-0.1,0.3c0,0.1-0.1,0.2-0.2,0.3c-0.1,0.1-0.2,0.1-0.3,0.2c-0.1,0-0.3,0.1-0.4,0.1H39.8z
		 M39.8,51.1h0.4c0.1,0,0.2,0,0.2,0c0.1,0,0.1-0.1,0.2-0.1c0,0,0.1-0.1,0.1-0.1c0-0.1,0-0.1,0-0.2c0-0.1,0-0.1,0-0.2
		c0-0.1-0.1-0.1-0.1-0.1c0,0-0.1-0.1-0.2-0.1c-0.1,0-0.1,0-0.2,0h-0.4V51.1z"/>
	<polygon fill="#FFFFFF" points="42,52 43,52 43,52.4 41.5,52.4 41.5,49.8 42,49.8 	"/>
	<path fill="#FFFFFF" d="M45.6,52.4h-0.4c0,0-0.1,0-0.1,0c0,0,0,0-0.1-0.1l-0.2-0.5h-1.1l-0.2,0.5c0,0,0,0.1-0.1,0.1
		c0,0-0.1,0-0.1,0h-0.4l1-2.6h0.5L45.6,52.4z M43.9,51.4h0.8l-0.3-0.9c0,0,0-0.1,0-0.1c0-0.1,0-0.1-0.1-0.2c0,0.1,0,0.1,0,0.2
		c0,0.1,0,0.1,0,0.1L43.9,51.4z"/>
	<polygon fill="#FFFFFF" points="47.4,49.8 47.4,50.2 46.6,50.2 46.6,52.4 46.2,52.4 46.2,50.2 45.4,50.2 45.4,49.8 	"/>
	<polygon fill="#FFFFFF" points="49.3,49.8 49.3,50.2 48.2,50.2 48.2,51 49.2,51 49.2,51.3 48.2,51.3 48.2,52.4 47.7,52.4 
		47.7,49.8 	"/>
	<path fill="#FFFFFF" d="M52.2,51.1c0,0.2,0,0.4-0.1,0.5C52,51.8,52,51.9,51.8,52c-0.1,0.1-0.3,0.2-0.4,0.3
		c-0.2,0.1-0.3,0.1-0.5,0.1c-0.2,0-0.4,0-0.5-0.1c-0.2-0.1-0.3-0.2-0.4-0.3c-0.1-0.1-0.2-0.3-0.3-0.4c-0.1-0.2-0.1-0.3-0.1-0.5
		c0-0.2,0-0.4,0.1-0.5c0.1-0.2,0.2-0.3,0.3-0.4c0.1-0.1,0.3-0.2,0.4-0.3c0.2-0.1,0.3-0.1,0.5-0.1c0.2,0,0.4,0,0.5,0.1
		c0.2,0.1,0.3,0.2,0.4,0.3c0.1,0.1,0.2,0.3,0.3,0.4C52.2,50.7,52.2,50.9,52.2,51.1 M51.7,51.1c0-0.1,0-0.3-0.1-0.4
		c0-0.1-0.1-0.2-0.2-0.3c-0.1-0.1-0.2-0.1-0.3-0.2c-0.1,0-0.2-0.1-0.3-0.1c-0.1,0-0.2,0-0.3,0.1c-0.1,0-0.2,0.1-0.3,0.2
		c-0.1,0.1-0.1,0.2-0.2,0.3c0,0.1-0.1,0.2-0.1,0.4c0,0.1,0,0.3,0.1,0.4c0,0.1,0.1,0.2,0.2,0.3c0.1,0.1,0.2,0.1,0.3,0.2
		c0.1,0,0.2,0.1,0.3,0.1c0.1,0,0.2,0,0.3-0.1c0.1,0,0.2-0.1,0.3-0.2c0.1-0.1,0.1-0.2,0.2-0.3C51.7,51.4,51.7,51.2,51.7,51.1"/>
	<path fill="#FFFFFF" d="M53.1,51.4v1h-0.5v-2.6h0.8c0.2,0,0.3,0,0.5,0.1c0.1,0,0.2,0.1,0.3,0.2c0.1,0.1,0.1,0.1,0.2,0.2
		c0,0.1,0.1,0.2,0.1,0.3c0,0.1,0,0.2,0,0.2c0,0.1-0.1,0.1-0.1,0.2c0,0.1-0.1,0.1-0.2,0.2c-0.1,0-0.2,0.1-0.2,0.1
		c0.1,0,0.1,0.1,0.2,0.1l0.6,1h-0.4c0,0-0.1,0-0.1,0c0,0-0.1,0-0.1-0.1l-0.5-0.8c0,0,0-0.1-0.1-0.1c0,0-0.1,0-0.1,0H53.1z M53.1,51
		h0.3c0.1,0,0.2,0,0.2,0c0.1,0,0.1-0.1,0.2-0.1c0,0,0.1-0.1,0.1-0.1c0-0.1,0-0.1,0-0.2c0-0.1,0-0.2-0.1-0.3
		c-0.1-0.1-0.2-0.1-0.4-0.1h-0.3V51z"/>
	<path fill="#FFFFFF" d="M56.3,51.4c0,0,0,0.1,0.1,0.1c0,0,0-0.1,0.1-0.1c0,0,0-0.1,0.1-0.1l0.8-1.4c0,0,0,0,0,0c0,0,0,0,0,0
		c0,0,0,0,0,0c0,0,0,0,0.1,0h0.4v2.6h-0.4v-1.7c0,0,0-0.1,0-0.1c0,0,0-0.1,0-0.1L56.5,52c0,0,0,0.1-0.1,0.1c0,0-0.1,0-0.1,0h-0.1
		c0,0-0.1,0-0.1,0c0,0-0.1,0-0.1-0.1l-0.8-1.5c0,0,0,0.1,0,0.1c0,0,0,0.1,0,0.1v1.7h-0.4v-2.6h0.4c0,0,0,0,0.1,0c0,0,0,0,0,0
		c0,0,0,0,0,0c0,0,0,0,0,0l0.8,1.4C56.2,51.4,56.2,51.4,56.3,51.4"/>
	<path fill="#2BECA6" d="M53.7,9.8c0,0.2-0.2,0.4-0.4,0.4c-0.2,0-0.4-0.2-0.4-0.4c0-0.2,0.2-0.4,0.4-0.4C53.5,9.5,53.7,9.6,53.7,9.8
		"/>
	<path fill="#2BECA6" d="M18.3,9.8c0,0.2-0.2,0.4-0.4,0.4c-0.2,0-0.4-0.2-0.4-0.4c0-0.2,0.2-0.4,0.4-0.4C18.2,9.5,18.3,9.6,18.3,9.8
		"/>
	<path fill="#2BECA6" d="M22.8,9.8c0,0.2-0.2,0.4-0.4,0.4c-0.2,0-0.4-0.2-0.4-0.4c0-0.2,0.2-0.4,0.4-0.4C22.6,9.5,22.8,9.6,22.8,9.8
		"/>
	<path fill="#2BECA6" d="M27.2,9.8c0,0.2-0.2,0.4-0.4,0.4c-0.2,0-0.4-0.2-0.4-0.4c0-0.2,0.2-0.4,0.4-0.4C27,9.5,27.2,9.6,27.2,9.8"
		/>
	<path fill="#2BECA6" d="M31.6,9.8c0,0.2-0.2,0.4-0.4,0.4c-0.2,0-0.4-0.2-0.4-0.4c0-0.2,0.2-0.4,0.4-0.4C31.4,9.5,31.6,9.6,31.6,9.8
		"/>
	<path fill="#2BECA6" d="M40.4,9.8c0,0.2-0.2,0.4-0.4,0.4c-0.2,0-0.4-0.2-0.4-0.4c0-0.2,0.2-0.4,0.4-0.4C40.3,9.5,40.4,9.6,40.4,9.8
		"/>
	<path fill="#2BECA6" d="M36,9.8c0,0.2-0.2,0.4-0.4,0.4c-0.2,0-0.4-0.2-0.4-0.4c0-0.2,0.2-0.4,0.4-0.4C35.8,9.5,36,9.6,36,9.8"/>
	<path fill="#2BECA6" d="M44.8,9.8c0,0.2-0.2,0.4-0.4,0.4c-0.2,0-0.4-0.2-0.4-0.4c0-0.2,0.2-0.4,0.4-0.4C44.7,9.5,44.8,9.6,44.8,9.8
		"/>
	<path fill="#2BECA6" d="M49.3,9.8c0,0.2-0.2,0.4-0.4,0.4c-0.2,0-0.4-0.2-0.4-0.4c0-0.2,0.2-0.4,0.4-0.4C49.1,9.5,49.3,9.6,49.3,9.8
		"/>
	<path fill="#2BECA6" d="M18.3,14.3c0,0.2-0.2,0.4-0.4,0.4c-0.2,0-0.4-0.2-0.4-0.4c0-0.2,0.2-0.4,0.4-0.4
		C18.2,13.9,18.3,14.1,18.3,14.3"/>
	<path fill="#2BECA6" d="M22.8,14.3c0,0.2-0.2,0.4-0.4,0.4c-0.2,0-0.4-0.2-0.4-0.4c0-0.2,0.2-0.4,0.4-0.4
		C22.6,13.9,22.8,14.1,22.8,14.3"/>
	<path fill="#2BECA6" d="M27.2,14.3c0,0.2-0.2,0.4-0.4,0.4c-0.2,0-0.4-0.2-0.4-0.4c0-0.2,0.2-0.4,0.4-0.4
		C27,13.9,27.2,14.1,27.2,14.3"/>
	<path fill="#2BECA6" d="M31.6,14.3c0,0.2-0.2,0.4-0.4,0.4c-0.2,0-0.4-0.2-0.4-0.4c0-0.2,0.2-0.4,0.4-0.4
		C31.4,13.9,31.6,14.1,31.6,14.3"/>
	<path fill="#2BECA6" d="M40.4,14.3c0,0.2-0.2,0.4-0.4,0.4c-0.2,0-0.4-0.2-0.4-0.4c0-0.2,0.2-0.4,0.4-0.4
		C40.3,13.9,40.4,14.1,40.4,14.3"/>
	<path fill="#2BECA6" d="M36,14.3c0,0.2-0.2,0.4-0.4,0.4c-0.2,0-0.4-0.2-0.4-0.4c0-0.2,0.2-0.4,0.4-0.4C35.8,13.9,36,14.1,36,14.3"
		/>
	<path fill="#2BECA6" d="M44.8,14.3c0,0.2-0.2,0.4-0.4,0.4c-0.2,0-0.4-0.2-0.4-0.4c0-0.2,0.2-0.4,0.4-0.4
		C44.7,13.9,44.8,14.1,44.8,14.3"/>
	<path fill="#2BECA6" d="M49.3,14.3c0,0.2-0.2,0.4-0.4,0.4c-0.2,0-0.4-0.2-0.4-0.4c0-0.2,0.2-0.4,0.4-0.4
		C49.1,13.9,49.3,14.1,49.3,14.3"/>
	<path fill="#2BECA6" d="M53.7,14.3c0,0.2-0.2,0.4-0.4,0.4c-0.2,0-0.4-0.2-0.4-0.4c0-0.2,0.2-0.4,0.4-0.4
		C53.5,13.9,53.7,14.1,53.7,14.3"/>
	<path fill="#2BECA6" d="M18.3,18.7c0,0.2-0.2,0.4-0.4,0.4c-0.2,0-0.4-0.2-0.4-0.4c0-0.2,0.2-0.4,0.4-0.4
		C18.2,18.3,18.3,18.5,18.3,18.7"/>
	<path fill="#2BECA6" d="M22.8,18.7c0,0.2-0.2,0.4-0.4,0.4c-0.2,0-0.4-0.2-0.4-0.4c0-0.2,0.2-0.4,0.4-0.4
		C22.6,18.3,22.8,18.5,22.8,18.7"/>
	<path fill="#2BECA6" d="M27.2,18.7c0,0.2-0.2,0.4-0.4,0.4c-0.2,0-0.4-0.2-0.4-0.4c0-0.2,0.2-0.4,0.4-0.4
		C27,18.3,27.2,18.5,27.2,18.7"/>
	<path fill="#2BECA6" d="M31.6,18.7c0,0.2-0.2,0.4-0.4,0.4c-0.2,0-0.4-0.2-0.4-0.4c0-0.2,0.2-0.4,0.4-0.4
		C31.4,18.3,31.6,18.5,31.6,18.7"/>
	<path fill="#2BECA6" d="M40.4,18.7c0,0.2-0.2,0.4-0.4,0.4c-0.2,0-0.4-0.2-0.4-0.4c0-0.2,0.2-0.4,0.4-0.4
		C40.3,18.3,40.4,18.5,40.4,18.7"/>
	<path fill="#2BECA6" d="M36,18.7c0,0.2-0.2,0.4-0.4,0.4c-0.2,0-0.4-0.2-0.4-0.4c0-0.2,0.2-0.4,0.4-0.4C35.8,18.3,36,18.5,36,18.7"
		/>
	<path fill="#2BECA6" d="M44.8,18.7c0,0.2-0.2,0.4-0.4,0.4c-0.2,0-0.4-0.2-0.4-0.4c0-0.2,0.2-0.4,0.4-0.4
		C44.7,18.3,44.8,18.5,44.8,18.7"/>
	<path fill="#2BECA6" d="M49.3,18.7c0,0.2-0.2,0.4-0.4,0.4c-0.2,0-0.4-0.2-0.4-0.4c0-0.2,0.2-0.4,0.4-0.4
		C49.1,18.3,49.3,18.5,49.3,18.7"/>
	<path fill="#2BECA6" d="M53.7,18.7c0,0.2-0.2,0.4-0.4,0.4c-0.2,0-0.4-0.2-0.4-0.4c0-0.2,0.2-0.4,0.4-0.4
		C53.5,18.3,53.7,18.5,53.7,18.7"/>
	<path fill="#2BECA6" d="M18.3,23.1c0,0.2-0.2,0.4-0.4,0.4c-0.2,0-0.4-0.2-0.4-0.4c0-0.2,0.2-0.4,0.4-0.4
		C18.2,22.7,18.3,22.9,18.3,23.1"/>
	<path fill="#2BECA6" d="M22.8,23.1c0,0.2-0.2,0.4-0.4,0.4c-0.2,0-0.4-0.2-0.4-0.4c0-0.2,0.2-0.4,0.4-0.4
		C22.6,22.7,22.8,22.9,22.8,23.1"/>
	<path fill="#2BECA6" d="M27.2,23.1c0,0.2-0.2,0.4-0.4,0.4c-0.2,0-0.4-0.2-0.4-0.4c0-0.2,0.2-0.4,0.4-0.4
		C27,22.7,27.2,22.9,27.2,23.1"/>
	<path fill="#2BECA6" d="M31.6,23.1c0,0.2-0.2,0.4-0.4,0.4c-0.2,0-0.4-0.2-0.4-0.4c0-0.2,0.2-0.4,0.4-0.4
		C31.4,22.7,31.6,22.9,31.6,23.1"/>
	<path fill="#2BECA6" d="M40.4,23.1c0,0.2-0.2,0.4-0.4,0.4c-0.2,0-0.4-0.2-0.4-0.4c0-0.2,0.2-0.4,0.4-0.4
		C40.3,22.7,40.4,22.9,40.4,23.1"/>
	<path fill="#2BECA6" d="M36,23.1c0,0.2-0.2,0.4-0.4,0.4c-0.2,0-0.4-0.2-0.4-0.4c0-0.2,0.2-0.4,0.4-0.4C35.8,22.7,36,22.9,36,23.1"
		/>
	<path fill="#2BECA6" d="M44.8,23.1c0,0.2-0.2,0.4-0.4,0.4c-0.2,0-0.4-0.2-0.4-0.4c0-0.2,0.2-0.4,0.4-0.4
		C44.7,22.7,44.8,22.9,44.8,23.1"/>
	<path fill="#2BECA6" d="M49.3,23.1c0,0.2-0.2,0.4-0.4,0.4c-0.2,0-0.4-0.2-0.4-0.4c0-0.2,0.2-0.4,0.4-0.4
		C49.1,22.7,49.3,22.9,49.3,23.1"/>
	<path fill="#2BECA6" d="M53.7,23.1c0,0.2-0.2,0.4-0.4,0.4c-0.2,0-0.4-0.2-0.4-0.4c0-0.2,0.2-0.4,0.4-0.4
		C53.5,22.7,53.7,22.9,53.7,23.1"/>
	<path fill="#2BECA6" d="M18.3,27.5c0,0.2-0.2,0.4-0.4,0.4c-0.2,0-0.4-0.2-0.4-0.4c0-0.2,0.2-0.4,0.4-0.4
		C18.2,27.1,18.3,27.3,18.3,27.5"/>
	<path fill="#2BECA6" d="M22.8,27.5c0,0.2-0.2,0.4-0.4,0.4c-0.2,0-0.4-0.2-0.4-0.4c0-0.2,0.2-0.4,0.4-0.4
		C22.6,27.1,22.8,27.3,22.8,27.5"/>
	<path fill="#2BECA6" d="M27.2,27.5c0,0.2-0.2,0.4-0.4,0.4c-0.2,0-0.4-0.2-0.4-0.4c0-0.2,0.2-0.4,0.4-0.4
		C27,27.1,27.2,27.3,27.2,27.5"/>
	<path fill="#2BECA6" d="M31.6,27.5c0,0.2-0.2,0.4-0.4,0.4c-0.2,0-0.4-0.2-0.4-0.4c0-0.2,0.2-0.4,0.4-0.4
		C31.4,27.1,31.6,27.3,31.6,27.5"/>
	<path fill="#2BECA6" d="M40.4,27.5c0,0.2-0.2,0.4-0.4,0.4c-0.2,0-0.4-0.2-0.4-0.4c0-0.2,0.2-0.4,0.4-0.4
		C40.3,27.1,40.4,27.3,40.4,27.5"/>
	<path fill="#2BECA6" d="M36,27.5c0,0.2-0.2,0.4-0.4,0.4c-0.2,0-0.4-0.2-0.4-0.4c0-0.2,0.2-0.4,0.4-0.4C35.8,27.1,36,27.3,36,27.5"
		/>
	<path fill="#2BECA6" d="M44.8,27.5c0,0.2-0.2,0.4-0.4,0.4c-0.2,0-0.4-0.2-0.4-0.4c0-0.2,0.2-0.4,0.4-0.4
		C44.7,27.1,44.8,27.3,44.8,27.5"/>
	<path fill="#2BECA6" d="M49.3,27.5c0,0.2-0.2,0.4-0.4,0.4c-0.2,0-0.4-0.2-0.4-0.4c0-0.2,0.2-0.4,0.4-0.4
		C49.1,27.1,49.3,27.3,49.3,27.5"/>
	<path fill="#2BECA6" d="M53.7,27.5c0,0.2-0.2,0.4-0.4,0.4c-0.2,0-0.4-0.2-0.4-0.4c0-0.2,0.2-0.4,0.4-0.4
		C53.5,27.1,53.7,27.3,53.7,27.5"/>
	<path fill="#2BECA6" d="M18.3,31.9c0,0.2-0.2,0.4-0.4,0.4c-0.2,0-0.4-0.2-0.4-0.4c0-0.2,0.2-0.4,0.4-0.4
		C18.2,31.6,18.3,31.7,18.3,31.9"/>
	<path fill="#2BECA6" d="M22.8,31.9c0,0.2-0.2,0.4-0.4,0.4c-0.2,0-0.4-0.2-0.4-0.4c0-0.2,0.2-0.4,0.4-0.4
		C22.6,31.6,22.8,31.7,22.8,31.9"/>
	<path fill="#2BECA6" d="M27.2,31.9c0,0.2-0.2,0.4-0.4,0.4c-0.2,0-0.4-0.2-0.4-0.4c0-0.2,0.2-0.4,0.4-0.4
		C27,31.6,27.2,31.7,27.2,31.9"/>
	<path fill="#2BECA6" d="M31.6,31.9c0,0.2-0.2,0.4-0.4,0.4c-0.2,0-0.4-0.2-0.4-0.4c0-0.2,0.2-0.4,0.4-0.4
		C31.4,31.6,31.6,31.7,31.6,31.9"/>
	<path fill="#2BECA6" d="M40.4,31.9c0,0.2-0.2,0.4-0.4,0.4c-0.2,0-0.4-0.2-0.4-0.4c0-0.2,0.2-0.4,0.4-0.4
		C40.3,31.6,40.4,31.7,40.4,31.9"/>
	<path fill="#2BECA6" d="M36,31.9c0,0.2-0.2,0.4-0.4,0.4c-0.2,0-0.4-0.2-0.4-0.4c0-0.2,0.2-0.4,0.4-0.4C35.8,31.6,36,31.7,36,31.9"
		/>
	<path fill="#2BECA6" d="M44.8,31.9c0,0.2-0.2,0.4-0.4,0.4c-0.2,0-0.4-0.2-0.4-0.4c0-0.2,0.2-0.4,0.4-0.4
		C44.7,31.6,44.8,31.7,44.8,31.9"/>
	<path fill="#2BECA6" d="M49.3,31.9c0,0.2-0.2,0.4-0.4,0.4c-0.2,0-0.4-0.2-0.4-0.4c0-0.2,0.2-0.4,0.4-0.4
		C49.1,31.6,49.3,31.7,49.3,31.9"/>
	<path fill="#2BECA6" d="M53.7,31.9c0,0.2-0.2,0.4-0.4,0.4c-0.2,0-0.4-0.2-0.4-0.4c0-0.2,0.2-0.4,0.4-0.4
		C53.5,31.6,53.7,31.7,53.7,31.9"/>
	<path fill="#2BECA6" d="M18.3,36.4c0,0.2-0.2,0.4-0.4,0.4c-0.2,0-0.4-0.2-0.4-0.4c0-0.2,0.2-0.4,0.4-0.4
		C18.2,36,18.3,36.1,18.3,36.4"/>
	<path fill="#2BECA6" d="M22.8,36.4c0,0.2-0.2,0.4-0.4,0.4c-0.2,0-0.4-0.2-0.4-0.4c0-0.2,0.2-0.4,0.4-0.4
		C22.6,36,22.8,36.1,22.8,36.4"/>
	<path fill="#2BECA6" d="M27.2,36.4c0,0.2-0.2,0.4-0.4,0.4c-0.2,0-0.4-0.2-0.4-0.4c0-0.2,0.2-0.4,0.4-0.4C27,36,27.2,36.1,27.2,36.4
		"/>
	<path fill="#2BECA6" d="M31.6,36.4c0,0.2-0.2,0.4-0.4,0.4c-0.2,0-0.4-0.2-0.4-0.4c0-0.2,0.2-0.4,0.4-0.4
		C31.4,36,31.6,36.1,31.6,36.4"/>
	<path fill="#2BECA6" d="M40.4,36.4c0,0.2-0.2,0.4-0.4,0.4c-0.2,0-0.4-0.2-0.4-0.4c0-0.2,0.2-0.4,0.4-0.4
		C40.3,36,40.4,36.1,40.4,36.4"/>
	<path fill="#2BECA6" d="M36,36.4c0,0.2-0.2,0.4-0.4,0.4c-0.2,0-0.4-0.2-0.4-0.4c0-0.2,0.2-0.4,0.4-0.4C35.8,36,36,36.1,36,36.4"/>
	<path fill="#2BECA6" d="M44.8,36.4c0,0.2-0.2,0.4-0.4,0.4c-0.2,0-0.4-0.2-0.4-0.4c0-0.2,0.2-0.4,0.4-0.4
		C44.7,36,44.8,36.1,44.8,36.4"/>
	<path fill="#2BECA6" d="M49.3,36.4c0,0.2-0.2,0.4-0.4,0.4c-0.2,0-0.4-0.2-0.4-0.4c0-0.2,0.2-0.4,0.4-0.4
		C49.1,36,49.3,36.1,49.3,36.4"/>
	<path fill="#2BECA6" d="M53.7,36.4c0,0.2-0.2,0.4-0.4,0.4c-0.2,0-0.4-0.2-0.4-0.4c0-0.2,0.2-0.4,0.4-0.4
		C53.5,36,53.7,36.1,53.7,36.4"/>
	<path fill="#2BECA6" d="M18.3,40.8c0,0.2-0.2,0.4-0.4,0.4c-0.2,0-0.4-0.2-0.4-0.4c0-0.2,0.2-0.4,0.4-0.4
		C18.2,40.4,18.3,40.6,18.3,40.8"/>
	<path fill="#2BECA6" d="M22.8,40.8c0,0.2-0.2,0.4-0.4,0.4c-0.2,0-0.4-0.2-0.4-0.4c0-0.2,0.2-0.4,0.4-0.4
		C22.6,40.4,22.8,40.6,22.8,40.8"/>
	<path fill="#2BECA6" d="M27.2,40.8c0,0.2-0.2,0.4-0.4,0.4c-0.2,0-0.4-0.2-0.4-0.4c0-0.2,0.2-0.4,0.4-0.4
		C27,40.4,27.2,40.6,27.2,40.8"/>
	<path fill="#2BECA6" d="M31.6,40.8c0,0.2-0.2,0.4-0.4,0.4c-0.2,0-0.4-0.2-0.4-0.4c0-0.2,0.2-0.4,0.4-0.4
		C31.4,40.4,31.6,40.6,31.6,40.8"/>
	<path fill="#2BECA6" d="M40.4,40.8c0,0.2-0.2,0.4-0.4,0.4c-0.2,0-0.4-0.2-0.4-0.4c0-0.2,0.2-0.4,0.4-0.4
		C40.3,40.4,40.4,40.6,40.4,40.8"/>
	<path fill="#2BECA6" d="M36,40.8c0,0.2-0.2,0.4-0.4,0.4c-0.2,0-0.4-0.2-0.4-0.4c0-0.2,0.2-0.4,0.4-0.4C35.8,40.4,36,40.6,36,40.8"
		/>
	<path fill="#2BECA6" d="M44.8,40.8c0,0.2-0.2,0.4-0.4,0.4c-0.2,0-0.4-0.2-0.4-0.4c0-0.2,0.2-0.4,0.4-0.4
		C44.7,40.4,44.8,40.6,44.8,40.8"/>
	<path fill="#2BECA6" d="M49.3,40.8c0,0.2-0.2,0.4-0.4,0.4c-0.2,0-0.4-0.2-0.4-0.4c0-0.2,0.2-0.4,0.4-0.4
		C49.1,40.4,49.3,40.6,49.3,40.8"/>
	<path fill="#2BECA6" d="M53.7,40.8c0,0.2-0.2,0.4-0.4,0.4c-0.2,0-0.4-0.2-0.4-0.4c0-0.2,0.2-0.4,0.4-0.4
		C53.5,40.4,53.7,40.6,53.7,40.8"/>
	<path fill="#2BECA6" d="M13.9,9.8c0,0.2-0.2,0.4-0.4,0.4c-0.2,0-0.4-0.2-0.4-0.4c0-0.2,0.2-0.4,0.4-0.4C13.7,9.5,13.9,9.6,13.9,9.8
		"/>
	<path fill="#2BECA6" d="M13.9,14.3c0,0.2-0.2,0.4-0.4,0.4c-0.2,0-0.4-0.2-0.4-0.4c0-0.2,0.2-0.4,0.4-0.4
		C13.7,13.9,13.9,14.1,13.9,14.3"/>
	<path fill="#2BECA6" d="M13.9,18.7c0,0.2-0.2,0.4-0.4,0.4c-0.2,0-0.4-0.2-0.4-0.4c0-0.2,0.2-0.4,0.4-0.4
		C13.7,18.3,13.9,18.5,13.9,18.7"/>
	<path fill="#2BECA6" d="M13.9,23.1c0,0.2-0.2,0.4-0.4,0.4c-0.2,0-0.4-0.2-0.4-0.4c0-0.2,0.2-0.4,0.4-0.4
		C13.7,22.7,13.9,22.9,13.9,23.1"/>
	<path fill="#2BECA6" d="M13.9,27.5c0,0.2-0.2,0.4-0.4,0.4c-0.2,0-0.4-0.2-0.4-0.4c0-0.2,0.2-0.4,0.4-0.4
		C13.7,27.1,13.9,27.3,13.9,27.5"/>
	<path fill="#2BECA6" d="M13.9,31.9c0,0.2-0.2,0.4-0.4,0.4c-0.2,0-0.4-0.2-0.4-0.4c0-0.2,0.2-0.4,0.4-0.4
		C13.7,31.6,13.9,31.7,13.9,31.9"/>
	<path fill="#2BECA6" d="M13.9,36.4c0,0.2-0.2,0.4-0.4,0.4c-0.2,0-0.4-0.2-0.4-0.4c0-0.2,0.2-0.4,0.4-0.4
		C13.7,36,13.9,36.1,13.9,36.4"/>
	<path fill="#2BECA6" d="M18.3,45.2c0,0.2-0.2,0.4-0.4,0.4c-0.2,0-0.4-0.2-0.4-0.4c0-0.2,0.2-0.4,0.4-0.4
		C18.2,44.8,18.3,45,18.3,45.2"/>
	<path fill="#2BECA6" d="M22.8,45.2c0,0.2-0.2,0.4-0.4,0.4c-0.2,0-0.4-0.2-0.4-0.4c0-0.2,0.2-0.4,0.4-0.4
		C22.6,44.8,22.8,45,22.8,45.2"/>
	<path fill="#2BECA6" d="M27.2,45.2c0,0.2-0.2,0.4-0.4,0.4c-0.2,0-0.4-0.2-0.4-0.4c0-0.2,0.2-0.4,0.4-0.4C27,44.8,27.2,45,27.2,45.2
		"/>
	<path fill="#2BECA6" d="M31.6,45.2c0,0.2-0.2,0.4-0.4,0.4c-0.2,0-0.4-0.2-0.4-0.4c0-0.2,0.2-0.4,0.4-0.4
		C31.4,44.8,31.6,45,31.6,45.2"/>
	<path fill="#2BECA6" d="M40.4,45.2c0,0.2-0.2,0.4-0.4,0.4c-0.2,0-0.4-0.2-0.4-0.4c0-0.2,0.2-0.4,0.4-0.4
		C40.3,44.8,40.4,45,40.4,45.2"/>
	<path fill="#2BECA6" d="M36,45.2c0,0.2-0.2,0.4-0.4,0.4c-0.2,0-0.4-0.2-0.4-0.4c0-0.2,0.2-0.4,0.4-0.4C35.8,44.8,36,45,36,45.2"/>
	<path fill="#2BECA6" d="M44.8,45.2c0,0.2-0.2,0.4-0.4,0.4c-0.2,0-0.4-0.2-0.4-0.4c0-0.2,0.2-0.4,0.4-0.4
		C44.7,44.8,44.8,45,44.8,45.2"/>
	<path fill="#2BECA6" d="M49.3,45.2c0,0.2-0.2,0.4-0.4,0.4c-0.2,0-0.4-0.2-0.4-0.4c0-0.2,0.2-0.4,0.4-0.4
		C49.1,44.8,49.3,45,49.3,45.2"/>
	<path fill="#2BECA6" d="M53.7,45.2c0,0.2-0.2,0.4-0.4,0.4c-0.2,0-0.4-0.2-0.4-0.4c0-0.2,0.2-0.4,0.4-0.4
		C53.5,44.8,53.7,45,53.7,45.2"/>
	<path fill="#2BECA6" d="M58.1,9.8c0,0.2-0.2,0.4-0.4,0.4c-0.2,0-0.4-0.2-0.4-0.4c0-0.2,0.2-0.4,0.4-0.4C57.9,9.5,58.1,9.6,58.1,9.8
		"/>
	<path fill="#2BECA6" d="M58.1,14.3c0,0.2-0.2,0.4-0.4,0.4c-0.2,0-0.4-0.2-0.4-0.4c0-0.2,0.2-0.4,0.4-0.4
		C57.9,13.9,58.1,14.1,58.1,14.3"/>
	<path fill="#2BECA6" d="M58.1,18.7c0,0.2-0.2,0.4-0.4,0.4c-0.2,0-0.4-0.2-0.4-0.4c0-0.2,0.2-0.4,0.4-0.4
		C57.9,18.3,58.1,18.5,58.1,18.7"/>
	<path fill="#2BECA6" d="M58.1,23.1c0,0.2-0.2,0.4-0.4,0.4c-0.2,0-0.4-0.2-0.4-0.4c0-0.2,0.2-0.4,0.4-0.4
		C57.9,22.7,58.1,22.9,58.1,23.1"/>
	<path fill="#2BECA6" d="M58.1,27.5c0,0.2-0.2,0.4-0.4,0.4c-0.2,0-0.4-0.2-0.4-0.4c0-0.2,0.2-0.4,0.4-0.4
		C57.9,27.1,58.1,27.3,58.1,27.5"/>
	<path fill="#2BECA6" d="M58.1,31.9c0,0.2-0.2,0.4-0.4,0.4c-0.2,0-0.4-0.2-0.4-0.4c0-0.2,0.2-0.4,0.4-0.4
		C57.9,31.6,58.1,31.7,58.1,31.9"/>
	<path fill="#2BECA6" d="M58.1,36.4c0,0.2-0.2,0.4-0.4,0.4c-0.2,0-0.4-0.2-0.4-0.4c0-0.2,0.2-0.4,0.4-0.4
		C57.9,36,58.1,36.1,58.1,36.4"/>
	<path fill="#2BECA6" d="M58.1,40.8c0,0.2-0.2,0.4-0.4,0.4c-0.2,0-0.4-0.2-0.4-0.4c0-0.2,0.2-0.4,0.4-0.4
		C57.9,40.4,58.1,40.6,58.1,40.8"/>
	<path fill="#2BECA6" d="M58.1,45.2c0,0.2-0.2,0.4-0.4,0.4c-0.2,0-0.4-0.2-0.4-0.4c0-0.2,0.2-0.4,0.4-0.4
		C57.9,44.8,58.1,45,58.1,45.2"/>
	<path fill="#2BECA6" d="M9.5,9.8c0,0.2-0.2,0.4-0.4,0.4c-0.2,0-0.4-0.2-0.4-0.4c0-0.2,0.2-0.4,0.4-0.4C9.3,9.5,9.5,9.6,9.5,9.8"/>
	<path fill="#2BECA6" d="M9.5,14.3c0,0.2-0.2,0.4-0.4,0.4c-0.2,0-0.4-0.2-0.4-0.4c0-0.2,0.2-0.4,0.4-0.4C9.3,13.9,9.5,14.1,9.5,14.3
		"/>
	<path fill="#2BECA6" d="M9.5,18.7c0,0.2-0.2,0.4-0.4,0.4c-0.2,0-0.4-0.2-0.4-0.4c0-0.2,0.2-0.4,0.4-0.4C9.3,18.3,9.5,18.5,9.5,18.7
		"/>
	<path fill="#2BECA6" d="M9.5,23.1c0,0.2-0.2,0.4-0.4,0.4c-0.2,0-0.4-0.2-0.4-0.4c0-0.2,0.2-0.4,0.4-0.4C9.3,22.7,9.5,22.9,9.5,23.1
		"/>
	<path fill="#2BECA6" d="M9.5,27.5c0,0.2-0.2,0.4-0.4,0.4c-0.2,0-0.4-0.2-0.4-0.4c0-0.2,0.2-0.4,0.4-0.4C9.3,27.1,9.5,27.3,9.5,27.5
		"/>
	<path fill="#2BECA6" d="M9.5,31.9c0,0.2-0.2,0.4-0.4,0.4c-0.2,0-0.4-0.2-0.4-0.4c0-0.2,0.2-0.4,0.4-0.4C9.3,31.6,9.5,31.7,9.5,31.9
		"/>
	<path fill="#2BECA6" d="M9.5,36.4c0,0.2-0.2,0.4-0.4,0.4c-0.2,0-0.4-0.2-0.4-0.4c0-0.2,0.2-0.4,0.4-0.4C9.3,36,9.5,36.1,9.5,36.4"
		/>
	<path fill="#2BECA6" d="M9.5,40.8c0,0.2-0.2,0.4-0.4,0.4c-0.2,0-0.4-0.2-0.4-0.4c0-0.2,0.2-0.4,0.4-0.4C9.3,40.4,9.5,40.6,9.5,40.8
		"/>
	<path fill="#2BECA6" d="M9.5,45.2c0,0.2-0.2,0.4-0.4,0.4c-0.2,0-0.4-0.2-0.4-0.4c0-0.2,0.2-0.4,0.4-0.4C9.3,44.8,9.5,45,9.5,45.2"
		/>
	<path fill="#2BECA6" d="M13.9,45.2c0,0.2-0.2,0.4-0.4,0.4c-0.2,0-0.4-0.2-0.4-0.4c0-0.2,0.2-0.4,0.4-0.4
		C13.7,44.8,13.9,45,13.9,45.2"/>
	<path fill="#2BECA6" d="M13.9,40.8c0,0.2-0.2,0.4-0.4,0.4c-0.2,0-0.4-0.2-0.4-0.4c0-0.2,0.2-0.4,0.4-0.4
		C13.7,40.4,13.9,40.6,13.9,40.8"/>
	<path fill="#FFFFFF" d="M46.7,32.5c1.5,0,2.8-1.3,2.8-2.8v-4.4c0-1.5-1.3-2.8-2.8-2.8h-3.8v1.2h1v8.8v3.2h-1V37h3.2v-1.2h-1v-3.2
		H46.7z M45.1,23.7h1h0.6c0.9,0,1.6,0.7,1.6,1.6v4.4c0,0.9-0.7,1.6-1.6,1.6h-1.6V23.7z"/>
	<path fill="#FFFFFF" d="M23,25.7v-0.4v-2.8h-1.2V23c-0.5-0.3-1-0.5-1.6-0.5c-1.5,0-2.8,1.3-2.8,2.8v8.8c0,1.5,1.3,2.8,2.8,2.8
		c0.6,0,1.2-0.2,1.6-0.5V37H23v-2.8v-0.4v0h-1.2v0v0.4c0,0.9-0.7,1.6-1.6,1.6c-0.9,0-1.6-0.7-1.6-1.6v-8.8c0-0.9,0.7-1.6,1.6-1.6
		c0.9,0,1.6,0.7,1.6,1.6v0.4H23z"/>
	<path fill="#FFFFFF" d="M29.6,35.8V37h3.8c1.5,0,2.8-1.3,2.8-2.8v-8.8c0-1.5-1.3-2.8-2.8-2.8h-3.8v1.2h1v12.1H29.6z M31.8,23.7h1.6
		c0.9,0,1.6,0.7,1.6,1.6v8.8c0,0.9-0.7,1.6-1.6,1.6h-1.6V23.7z"/>
	<path fill="#FFFFFF" d="M13.5,20.2c0.6,0,1.1-0.4,1.4-0.9h37c0.2,0.5,0.8,0.9,1.4,0.9c0.8,0,1.5-0.7,1.5-1.5c0-0.8-0.7-1.5-1.5-1.5
		c-0.4,0-0.7,0.1-1,0.4L34.9,9.8c0-0.8-0.7-1.4-1.5-1.4c-0.8,0-1.5,0.7-1.5,1.5l-17.3,7.7c-0.3-0.2-0.6-0.4-1-0.4
		c-0.8,0-1.5,0.7-1.5,1.5C12,19.5,12.7,20.2,13.5,20.2 M32.3,11c0.3,0.3,0.6,0.4,1,0.4c0.4,0,0.8-0.2,1.1-0.5l16.1,7.1H16.3L32.3,11
		z"/>
	<path fill="#FFFFFF" d="M57.7,43.7c-0.6,0-1.1,0.4-1.4,0.9H10.5c-0.2-0.5-0.8-0.9-1.4-0.9c-0.8,0-1.5,0.7-1.5,1.5
		c0,0.8,0.7,1.5,1.5,1.5c0.6,0,1.1-0.4,1.4-0.9h45.9c0.2,0.5,0.8,0.9,1.4,0.9c0.8,0,1.5-0.7,1.5-1.5C59.2,44.4,58.6,43.7,57.7,43.7"
		/>
	<path fill="#FFFFFF" d="M13.5,42.3c0.6,0,1.1-0.4,1.4-0.9h37c0.2,0.5,0.8,0.9,1.4,0.9c0.8,0,1.5-0.7,1.5-1.5c0-0.8-0.7-1.5-1.5-1.5
		c-0.6,0-1.1,0.4-1.4,0.9h-37c-0.2-0.5-0.8-0.9-1.4-0.9c-0.8,0-1.5,0.7-1.5,1.5C12,41.6,12.7,42.3,13.5,42.3"/>
	<path fill="#006FE8" d="M84.9,21.7c0.1,0,0.2,0,0.3,0.1l0.7,0.8c-0.4,0.5-0.9,0.9-1.5,1.2c-0.6,0.3-1.3,0.4-2.2,0.4
		c-0.8,0-1.4-0.1-2-0.4c-0.6-0.3-1.1-0.6-1.5-1.1c-0.4-0.5-0.8-1-1-1.7c-0.2-0.6-0.3-1.3-0.3-2.1c0-0.8,0.1-1.5,0.4-2.1
		c0.3-0.6,0.6-1.2,1.1-1.6c0.5-0.5,1-0.8,1.6-1.1c0.6-0.3,1.3-0.4,2.1-0.4c0.8,0,1.4,0.1,2,0.4c0.6,0.2,1,0.6,1.5,1L85.4,16
		c0,0.1-0.1,0.1-0.1,0.1c-0.1,0-0.1,0.1-0.2,0.1c-0.1,0-0.2,0-0.3-0.1c-0.1-0.1-0.3-0.2-0.4-0.3c-0.2-0.1-0.4-0.2-0.7-0.3
		c-0.3-0.1-0.6-0.1-1-0.1c-0.5,0-0.9,0.1-1.3,0.3c-0.4,0.2-0.7,0.4-1,0.7c-0.3,0.3-0.5,0.7-0.7,1.1c-0.2,0.4-0.2,0.9-0.2,1.5
		c0,0.6,0.1,1.1,0.2,1.5c0.2,0.4,0.4,0.8,0.7,1.1c0.3,0.3,0.6,0.5,1,0.7c0.4,0.2,0.8,0.2,1.2,0.2c0.3,0,0.5,0,0.7,0
		c0.2,0,0.4-0.1,0.6-0.1c0.2-0.1,0.3-0.1,0.5-0.2c0.2-0.1,0.3-0.2,0.5-0.4c0,0,0.1-0.1,0.1-0.1C84.8,21.7,84.9,21.7,84.9,21.7"/>
	<path fill="#006FE8" d="M91.5,22.5c0.4,0,0.7-0.1,1-0.2c0.3-0.1,0.5-0.3,0.7-0.5c0.2-0.2,0.4-0.5,0.5-0.8c0.1-0.3,0.2-0.7,0.2-1.1
		v-6.1h1.9V20c0,0.6-0.1,1.2-0.3,1.7c-0.2,0.5-0.5,1-0.8,1.3c-0.4,0.4-0.8,0.7-1.3,0.9c-0.5,0.2-1.1,0.3-1.8,0.3
		c-0.7,0-1.2-0.1-1.8-0.3c-0.5-0.2-1-0.5-1.3-0.9c-0.4-0.4-0.6-0.8-0.8-1.3c-0.2-0.5-0.3-1.1-0.3-1.7v-6.1h1.9V20
		c0,0.4,0.1,0.7,0.2,1.1c0.1,0.3,0.3,0.6,0.5,0.8c0.2,0.2,0.4,0.4,0.7,0.5C90.8,22.5,91.1,22.5,91.5,22.5"/>
	<path fill="#006FE8" d="M103,15.7c-0.1,0.1-0.1,0.2-0.2,0.2c-0.1,0-0.1,0.1-0.2,0.1c-0.1,0-0.2,0-0.3-0.1c-0.1-0.1-0.3-0.2-0.4-0.2
		c-0.2-0.1-0.3-0.2-0.6-0.2c-0.2-0.1-0.5-0.1-0.8-0.1c-0.3,0-0.5,0-0.7,0.1c-0.2,0.1-0.4,0.2-0.5,0.3c-0.1,0.1-0.2,0.2-0.3,0.4
		C99,16.2,99,16.4,99,16.6c0,0.2,0.1,0.4,0.2,0.6c0.1,0.2,0.3,0.3,0.5,0.4c0.2,0.1,0.5,0.2,0.8,0.3c0.3,0.1,0.6,0.2,0.9,0.3
		c0.3,0.1,0.6,0.2,0.9,0.4c0.3,0.1,0.5,0.3,0.8,0.5c0.2,0.2,0.4,0.5,0.5,0.8c0.1,0.3,0.2,0.7,0.2,1.1c0,0.5-0.1,0.9-0.2,1.3
		c-0.2,0.4-0.4,0.8-0.7,1.1c-0.3,0.3-0.7,0.5-1.1,0.7c-0.4,0.2-0.9,0.3-1.5,0.3c-0.3,0-0.6,0-1-0.1c-0.3-0.1-0.6-0.2-0.9-0.3
		c-0.3-0.1-0.6-0.3-0.8-0.4c-0.3-0.2-0.5-0.3-0.7-0.6l0.5-0.9c0.1-0.1,0.1-0.1,0.2-0.2c0.1,0,0.2-0.1,0.2-0.1c0.1,0,0.2,0,0.4,0.1
		c0.1,0.1,0.3,0.2,0.5,0.3c0.2,0.1,0.4,0.2,0.7,0.3c0.3,0.1,0.6,0.1,0.9,0.1c0.5,0,1-0.1,1.3-0.4c0.3-0.3,0.4-0.6,0.4-1.1
		c0-0.3-0.1-0.5-0.2-0.7c-0.1-0.2-0.3-0.3-0.5-0.4c-0.2-0.1-0.5-0.2-0.8-0.3c-0.3-0.1-0.6-0.2-0.9-0.3c-0.3-0.1-0.6-0.2-0.9-0.3
		c-0.3-0.1-0.5-0.3-0.8-0.5c-0.2-0.2-0.4-0.5-0.5-0.8c-0.1-0.3-0.2-0.7-0.2-1.2c0-0.4,0.1-0.7,0.2-1.1c0.1-0.4,0.4-0.7,0.6-0.9
		c0.3-0.3,0.6-0.5,1-0.7c0.4-0.2,0.9-0.2,1.4-0.2c0.6,0,1.2,0.1,1.7,0.3c0.5,0.2,0.9,0.5,1.3,0.8L103,15.7z"/>
	<polygon fill="#006FE8" points="112.3,13.9 112.3,15.4 109.2,15.4 109.2,24.1 107.4,24.1 107.4,15.4 104.3,15.4 104.3,13.9 	"/>
	<path fill="#006FE8" d="M122.7,19c0,0.7-0.1,1.4-0.4,2.1c-0.2,0.6-0.6,1.2-1,1.7c-0.4,0.5-1,0.8-1.6,1.1c-0.6,0.3-1.3,0.4-2.1,0.4
		c-0.8,0-1.5-0.1-2.1-0.4c-0.6-0.3-1.2-0.6-1.6-1.1c-0.5-0.5-0.8-1-1-1.7c-0.2-0.6-0.4-1.3-0.4-2.1c0-0.7,0.1-1.4,0.4-2.1
		c0.2-0.6,0.6-1.2,1-1.7c0.5-0.5,1-0.8,1.6-1.1c0.6-0.3,1.3-0.4,2.1-0.4c0.8,0,1.5,0.1,2.1,0.4c0.6,0.3,1.2,0.6,1.6,1.1
		c0.4,0.5,0.8,1,1,1.7C122.6,17.5,122.7,18.2,122.7,19 M120.8,19c0-0.6-0.1-1.1-0.2-1.5c-0.1-0.4-0.4-0.8-0.6-1.1
		c-0.3-0.3-0.6-0.5-1-0.7c-0.4-0.2-0.8-0.2-1.3-0.2c-0.5,0-0.9,0.1-1.3,0.2c-0.4,0.2-0.7,0.4-1,0.7c-0.3,0.3-0.5,0.7-0.6,1.1
		c-0.1,0.4-0.2,0.9-0.2,1.5c0,0.6,0.1,1.1,0.2,1.5c0.1,0.4,0.4,0.8,0.6,1.1c0.3,0.3,0.6,0.5,1,0.7c0.4,0.2,0.8,0.2,1.3,0.2
		c0.5,0,0.9-0.1,1.3-0.2c0.4-0.2,0.7-0.4,1-0.7c0.3-0.3,0.5-0.7,0.6-1.1C120.7,20,120.8,19.5,120.8,19"/>
	<path fill="#006FE8" d="M129.5,20.3c0.1,0.2,0.1,0.3,0.2,0.5c0.1-0.2,0.1-0.3,0.2-0.5c0.1-0.2,0.1-0.3,0.2-0.5l3-5.7
		c0-0.1,0.1-0.1,0.1-0.2c0,0,0.1-0.1,0.1-0.1c0,0,0.1,0,0.2,0c0.1,0,0.1,0,0.2,0h1.4v10.2h-1.7v-6.6c0-0.1,0-0.3,0-0.4
		c0-0.1,0-0.3,0-0.4l-3.1,5.8c-0.1,0.1-0.2,0.2-0.3,0.3c-0.1,0.1-0.2,0.1-0.4,0.1h-0.3c-0.1,0-0.3,0-0.4-0.1
		c-0.1-0.1-0.2-0.2-0.3-0.3l-3.1-5.8c0,0.2,0,0.3,0,0.5c0,0.1,0,0.3,0,0.4v6.6h-1.7V13.9h1.4c0.1,0,0.2,0,0.2,0c0.1,0,0.1,0,0.2,0
		c0,0,0.1,0,0.1,0.1c0,0,0.1,0.1,0.1,0.2l3,5.7C129.4,20,129.4,20.1,129.5,20.3"/>
	<polygon fill="#006FE8" points="143.6,13.9 143.6,15.4 139.1,15.4 139.1,18.2 142.7,18.2 142.7,19.7 139.1,19.7 139.1,22.5 
		143.6,22.5 143.6,24.1 137.2,24.1 137.2,13.9 	"/>
	<path fill="#006FE8" d="M147.2,20.1v4h-1.9V13.9h3.1c0.7,0,1.3,0.1,1.8,0.2c0.5,0.1,0.9,0.3,1.2,0.6c0.3,0.3,0.5,0.6,0.7,0.9
		c0.1,0.4,0.2,0.8,0.2,1.2c0,0.3-0.1,0.7-0.2,1c-0.1,0.3-0.2,0.6-0.4,0.8c-0.2,0.2-0.4,0.5-0.7,0.7c-0.3,0.2-0.6,0.3-1,0.5
		c0.2,0.1,0.4,0.3,0.6,0.6l2.5,3.8h-1.7c-0.2,0-0.3,0-0.4-0.1c-0.1-0.1-0.2-0.2-0.3-0.3l-2.1-3.3c-0.1-0.1-0.2-0.2-0.3-0.3
		c-0.1-0.1-0.2-0.1-0.4-0.1H147.2z M147.2,18.7h1.2c0.4,0,0.7,0,0.9-0.1c0.3-0.1,0.5-0.2,0.7-0.4c0.2-0.2,0.3-0.3,0.4-0.6
		c0.1-0.2,0.1-0.5,0.1-0.7c0-0.5-0.2-0.9-0.5-1.2c-0.3-0.3-0.9-0.4-1.6-0.4h-1.2V18.7z"/>
	<path fill="#006FE8" d="M87,35.9c0,0.7-0.1,1.4-0.4,2.1c-0.2,0.6-0.6,1.2-1,1.6c-0.4,0.5-1,0.8-1.6,1.1c-0.6,0.2-1.3,0.4-2.1,0.4
		H78V30.8h3.9c0.8,0,1.5,0.1,2.1,0.4c0.6,0.3,1.2,0.6,1.6,1.1c0.4,0.4,0.8,1,1,1.6C86.9,34.5,87,35.1,87,35.9 M85,35.9
		c0-0.6-0.1-1.1-0.2-1.5c-0.1-0.4-0.4-0.8-0.6-1.1c-0.3-0.3-0.6-0.5-1-0.7c-0.4-0.2-0.8-0.2-1.3-0.2h-2v7.2h2c0.5,0,0.9-0.1,1.3-0.2
		c0.4-0.2,0.7-0.4,1-0.7c0.3-0.3,0.5-0.7,0.6-1.1C85,37,85,36.5,85,35.9"/>
	<path fill="#006FE8" d="M97,41h-1.5c-0.2,0-0.3,0-0.4-0.1c-0.1-0.1-0.2-0.2-0.2-0.3l-0.8-2.1H90l-0.8,2.1c0,0.1-0.1,0.2-0.2,0.3
		C88.9,41,88.7,41,88.6,41h-1.5l4-10.2H93L97,41z M90.5,37.1h3.2l-1.2-3.4c-0.1-0.2-0.1-0.3-0.2-0.5c-0.1-0.2-0.1-0.4-0.2-0.7
		c-0.1,0.2-0.1,0.5-0.2,0.7c-0.1,0.2-0.1,0.4-0.2,0.5L90.5,37.1z"/>
	<polygon fill="#006FE8" points="104.2,30.8 104.2,32.4 101.1,32.4 101.1,41 99.3,41 99.3,32.4 96.2,32.4 96.2,30.8 	"/>
	<path fill="#006FE8" d="M113.3,41h-1.5c-0.2,0-0.3,0-0.4-0.1c-0.1-0.1-0.2-0.2-0.2-0.3l-0.8-2.1h-4.2l-0.8,2.1
		c0,0.1-0.1,0.2-0.2,0.3c-0.1,0.1-0.2,0.1-0.4,0.1h-1.5l4-10.2h1.9L113.3,41z M106.7,37.1h3.2l-1.2-3.4c-0.1-0.2-0.1-0.3-0.2-0.5
		c-0.1-0.2-0.1-0.4-0.2-0.7c-0.1,0.2-0.1,0.5-0.2,0.7c-0.1,0.2-0.1,0.4-0.2,0.5L106.7,37.1z"/>
	<path fill="#006FE8" d="M119,37.4V41h-1.9V30.8h3.3c0.7,0,1.3,0.1,1.8,0.2c0.5,0.2,0.9,0.4,1.2,0.7c0.3,0.3,0.6,0.6,0.7,1
		c0.2,0.4,0.2,0.8,0.2,1.3c0,0.5-0.1,0.9-0.2,1.4c-0.2,0.4-0.4,0.8-0.7,1.1c-0.3,0.3-0.7,0.5-1.2,0.7c-0.5,0.2-1.1,0.2-1.7,0.2H119z
		 M119,35.9h1.4c0.3,0,0.6,0,0.9-0.1c0.3-0.1,0.5-0.2,0.6-0.4c0.2-0.2,0.3-0.4,0.4-0.6c0.1-0.2,0.1-0.5,0.1-0.8c0-0.3,0-0.5-0.1-0.7
		c-0.1-0.2-0.2-0.4-0.4-0.6c-0.2-0.2-0.4-0.3-0.6-0.4c-0.3-0.1-0.6-0.1-0.9-0.1H119V35.9z"/>
	<polygon fill="#006FE8" points="127.7,39.4 131.8,39.4 131.8,41 125.8,41 125.8,30.8 127.7,30.8 	"/>
	<path fill="#006FE8" d="M142,41h-1.5c-0.2,0-0.3,0-0.4-0.1c-0.1-0.1-0.2-0.2-0.2-0.3l-0.8-2.1H135l-0.8,2.1c0,0.1-0.1,0.2-0.2,0.3
		c-0.1,0.1-0.2,0.1-0.4,0.1h-1.5l4-10.2h1.9L142,41z M135.4,37.1h3.2l-1.2-3.4c-0.1-0.2-0.1-0.3-0.2-0.5c-0.1-0.2-0.1-0.4-0.2-0.7
		c-0.1,0.2-0.1,0.5-0.2,0.7c-0.1,0.2-0.1,0.4-0.2,0.5L135.4,37.1z"/>
	<polygon fill="#006FE8" points="149.2,30.8 149.2,32.4 146.1,32.4 146.1,41 144.2,41 144.2,32.4 141.2,32.4 141.2,30.8 	"/>
	<polygon fill="#006FE8" points="156.8,30.8 156.8,32.3 152.3,32.3 152.3,35.3 156.1,35.3 156.1,36.8 152.3,36.8 152.3,41 150.4,41 
		150.4,30.8 	"/>
	<path fill="#006FE8" d="M168,35.9c0,0.7-0.1,1.4-0.4,2.1c-0.2,0.6-0.6,1.2-1,1.7c-0.4,0.5-1,0.8-1.6,1.1c-0.6,0.3-1.3,0.4-2.1,0.4
		c-0.8,0-1.5-0.1-2.1-0.4c-0.6-0.3-1.2-0.6-1.6-1.1c-0.5-0.5-0.8-1-1-1.7c-0.2-0.6-0.4-1.3-0.4-2.1c0-0.7,0.1-1.4,0.4-2.1
		c0.2-0.6,0.6-1.2,1-1.7c0.5-0.5,1-0.8,1.6-1.1c0.6-0.3,1.3-0.4,2.1-0.4c0.8,0,1.5,0.1,2.1,0.4c0.6,0.3,1.2,0.6,1.6,1.1
		c0.4,0.5,0.8,1,1,1.7C167.9,34.5,168,35.1,168,35.9 M166.1,35.9c0-0.6-0.1-1.1-0.2-1.5c-0.1-0.4-0.4-0.8-0.6-1.1
		c-0.3-0.3-0.6-0.5-1-0.7c-0.4-0.2-0.8-0.2-1.3-0.2c-0.5,0-0.9,0.1-1.3,0.2c-0.4,0.2-0.7,0.4-1,0.7c-0.3,0.3-0.5,0.7-0.6,1.1
		c-0.1,0.4-0.2,0.9-0.2,1.5c0,0.6,0.1,1.1,0.2,1.5c0.1,0.4,0.4,0.8,0.6,1.1c0.3,0.3,0.6,0.5,1,0.7c0.4,0.2,0.8,0.2,1.3,0.2
		c0.5,0,0.9-0.1,1.3-0.2c0.4-0.2,0.7-0.4,1-0.7c0.3-0.3,0.5-0.7,0.6-1.1C166,37,166.1,36.5,166.1,35.9"/>
	<path fill="#006FE8" d="M171.5,37v4h-1.9V30.8h3.1c0.7,0,1.3,0.1,1.8,0.2c0.5,0.1,0.9,0.3,1.2,0.6c0.3,0.3,0.5,0.6,0.7,0.9
		c0.1,0.4,0.2,0.8,0.2,1.2c0,0.3-0.1,0.7-0.2,1c-0.1,0.3-0.2,0.6-0.4,0.8c-0.2,0.2-0.4,0.5-0.7,0.7c-0.3,0.2-0.6,0.3-1,0.5
		c0.2,0.1,0.4,0.3,0.6,0.6l2.5,3.8h-1.7c-0.2,0-0.3,0-0.4-0.1c-0.1-0.1-0.2-0.2-0.3-0.3l-2.1-3.3c-0.1-0.1-0.2-0.2-0.3-0.3
		c-0.1-0.1-0.2-0.1-0.4-0.1H171.5z M171.5,35.6h1.2c0.4,0,0.7,0,0.9-0.1c0.3-0.1,0.5-0.2,0.7-0.4c0.2-0.2,0.3-0.3,0.4-0.6
		c0.1-0.2,0.1-0.5,0.1-0.7c0-0.5-0.2-0.9-0.5-1.2c-0.3-0.3-0.9-0.4-1.6-0.4h-1.2V35.6z"/>
	<path fill="#006FE8" d="M184,37.2c0.1,0.2,0.1,0.3,0.2,0.5c0.1-0.2,0.1-0.3,0.2-0.5c0.1-0.2,0.1-0.3,0.2-0.5l3-5.7
		c0-0.1,0.1-0.1,0.1-0.2c0,0,0.1-0.1,0.1-0.1c0,0,0.1,0,0.2,0c0.1,0,0.1,0,0.2,0h1.4V41h-1.7v-6.6c0-0.1,0-0.3,0-0.4
		c0-0.1,0-0.3,0-0.4l-3.1,5.8c-0.1,0.1-0.2,0.2-0.3,0.3c-0.1,0.1-0.2,0.1-0.4,0.1h-0.3c-0.1,0-0.3,0-0.4-0.1
		c-0.1-0.1-0.2-0.2-0.3-0.3l-3.1-5.8c0,0.2,0,0.3,0,0.5c0,0.1,0,0.3,0,0.4V41h-1.7V30.8h1.4c0.1,0,0.2,0,0.2,0c0.1,0,0.1,0,0.2,0
		c0,0,0.1,0,0.1,0.1c0,0,0.1,0.1,0.1,0.2l3,5.7C183.9,36.9,184,37.1,184,37.2"/>
	<rect x="78.2" y="47.7" fill="#006FE8" width="1.9" height="10.2"/>
	<path fill="#006FE8" d="M83.6,47.7c0.1,0,0.1,0,0.2,0c0,0,0.1,0.1,0.1,0.1c0,0,0.1,0.1,0.1,0.2l5.3,6.8c0-0.2,0-0.3,0-0.5
		c0-0.2,0-0.3,0-0.4v-6.2h1.7v10.2h-1c-0.1,0-0.3,0-0.4-0.1c-0.1,0-0.2-0.1-0.3-0.3L84,50.8c0,0.2,0,0.3,0,0.4c0,0.1,0,0.3,0,0.4
		v6.3h-1.7V47.7h1C83.4,47.7,83.5,47.7,83.6,47.7"/>
	<path fill="#006FE8" d="M98.4,49.6c-0.1,0.1-0.1,0.2-0.2,0.2c-0.1,0-0.1,0.1-0.2,0.1c-0.1,0-0.2,0-0.3-0.1
		c-0.1-0.1-0.3-0.2-0.4-0.2c-0.2-0.1-0.3-0.2-0.6-0.2c-0.2-0.1-0.5-0.1-0.8-0.1c-0.3,0-0.5,0-0.7,0.1c-0.2,0.1-0.4,0.2-0.5,0.3
		c-0.1,0.1-0.2,0.2-0.3,0.4c-0.1,0.2-0.1,0.3-0.1,0.5c0,0.2,0.1,0.4,0.2,0.6c0.1,0.2,0.3,0.3,0.5,0.4c0.2,0.1,0.5,0.2,0.8,0.3
		c0.3,0.1,0.6,0.2,0.9,0.3c0.3,0.1,0.6,0.2,0.9,0.4c0.3,0.1,0.5,0.3,0.8,0.5c0.2,0.2,0.4,0.5,0.5,0.8c0.1,0.3,0.2,0.7,0.2,1.1
		c0,0.5-0.1,0.9-0.2,1.3c-0.2,0.4-0.4,0.8-0.7,1.1c-0.3,0.3-0.7,0.5-1.1,0.7C96.6,58,96.1,58,95.6,58c-0.3,0-0.6,0-1-0.1
		c-0.3-0.1-0.6-0.2-0.9-0.3c-0.3-0.1-0.6-0.3-0.8-0.4c-0.3-0.2-0.5-0.3-0.7-0.6l0.5-0.9c0.1-0.1,0.1-0.1,0.2-0.2
		c0.1,0,0.2-0.1,0.2-0.1c0.1,0,0.2,0,0.4,0.1c0.1,0.1,0.3,0.2,0.5,0.3c0.2,0.1,0.4,0.2,0.7,0.3c0.3,0.1,0.6,0.1,0.9,0.1
		c0.5,0,1-0.1,1.2-0.4c0.3-0.3,0.4-0.6,0.4-1.1c0-0.3-0.1-0.5-0.2-0.7c-0.1-0.2-0.3-0.3-0.5-0.4c-0.2-0.1-0.5-0.2-0.8-0.3
		c-0.3-0.1-0.6-0.2-0.9-0.3c-0.3-0.1-0.6-0.2-0.9-0.3c-0.3-0.1-0.5-0.3-0.8-0.5c-0.2-0.2-0.4-0.5-0.5-0.8c-0.1-0.3-0.2-0.7-0.2-1.2
		c0-0.4,0.1-0.7,0.2-1.1c0.1-0.4,0.4-0.7,0.6-0.9c0.3-0.3,0.6-0.5,1-0.7c0.4-0.2,0.9-0.2,1.4-0.2c0.6,0,1.2,0.1,1.7,0.3
		c0.5,0.2,0.9,0.5,1.3,0.8L98.4,49.6z"/>
	<polygon fill="#006FE8" points="107.7,47.7 107.7,49.3 104.6,49.3 104.6,57.9 102.7,57.9 102.7,49.3 99.7,49.3 99.7,47.7 	"/>
	<rect x="109.1" y="47.7" fill="#006FE8" width="1.9" height="10.2"/>
	<polygon fill="#006FE8" points="120.5,47.7 120.5,49.3 117.4,49.3 117.4,57.9 115.5,57.9 115.5,49.3 112.4,49.3 112.4,47.7 	"/>
	<path fill="#006FE8" d="M125.7,56.4c0.4,0,0.7-0.1,1-0.2c0.3-0.1,0.5-0.3,0.7-0.5c0.2-0.2,0.4-0.5,0.5-0.8c0.1-0.3,0.2-0.7,0.2-1.1
		v-6.1h1.9v6.1c0,0.6-0.1,1.2-0.3,1.7c-0.2,0.5-0.5,1-0.8,1.3c-0.4,0.4-0.8,0.7-1.3,0.9c-0.5,0.2-1.1,0.3-1.8,0.3
		c-0.7,0-1.2-0.1-1.8-0.3c-0.5-0.2-1-0.5-1.3-0.9c-0.4-0.4-0.6-0.8-0.8-1.3c-0.2-0.5-0.3-1.1-0.3-1.7v-6.1h1.9v6.1
		c0,0.4,0.1,0.7,0.2,1.1c0.1,0.3,0.3,0.6,0.5,0.8c0.2,0.2,0.4,0.4,0.7,0.5C125,56.3,125.4,56.4,125.7,56.4"/>
	<polygon fill="#006FE8" points="139,47.7 139,49.3 136,49.3 136,57.9 134.1,57.9 134.1,49.3 131,49.3 131,47.7 	"/>
	<polygon fill="#006FE8" points="146.6,47.7 146.6,49.2 142.1,49.2 142.1,52.1 145.7,52.1 145.7,53.5 142.1,53.5 142.1,56.4 
		146.6,56.4 146.6,57.9 140.2,57.9 140.2,47.7 	"/>
</g>
</svg>
